<svg width="197" height="197" viewBox="0 0 197 197" fill="none" xmlns="http://www.w3.org/2000/svg">
<path d="M145.031 33.8514C179.082 53.512 194.301 94.637 181.252 131.727C168.204 168.819 130.588 191.355 91.7268 185.365C52.8669 179.374 23.7841 146.557 22.5106 107.258L22.4697 104.61L22.5106 101.963C23.4414 73.2589 39.3736 47.151 64.4748 33.1968C89.5762 19.2426 120.16 19.4911 145.031 33.8514ZM134.466 82.492C131.555 79.5812 126.934 79.2907 123.681 81.8138L122.913 82.492L96.0066 109.39L85.4418 98.8335L84.6738 98.1553C81.421 95.6339 76.8007 95.9256 73.8905 98.836C70.9804 101.746 70.6889 106.366 73.2102 109.619L73.8884 110.387L90.2299 126.729L90.998 127.407C93.9452 129.694 98.0681 129.694 101.015 127.407L101.783 126.729L134.466 94.0454L135.145 93.2774C137.668 90.0246 137.377 85.403 134.466 82.492Z" fill="#06FF1E"/>
</svg>
