<svg width="24" height="22" viewBox="0 0 24 22" fill="none" xmlns="http://www.w3.org/2000/svg">
<path d="M0 2C0 0.895431 0.895431 0 2 0H22C23.1046 0 24 0.895431 24 2V2C24 3.10457 23.1046 4 22 4H2C0.89543 4 0 3.10457 0 2V2Z" fill="white"/>
<path d="M0 11C0 9.89543 0.895431 9 2 9H22C23.1046 9 24 9.89543 24 11V11C24 12.1046 23.1046 13 22 13H2C0.89543 13 0 12.1046 0 11V11Z" fill="white"/>
<path d="M0 20C0 18.8954 0.895431 18 2 18H22C23.1046 18 24 18.8954 24 20V20C24 21.1046 23.1046 22 22 22H2C0.89543 22 0 21.1046 0 20V20Z" fill="white"/>
</svg>
