<svg width="21" height="21" viewBox="0 0 21 21" fill="none" xmlns="http://www.w3.org/2000/svg">
<path d="M0 2C0 0.89543 0.895431 0 2 0H7C8.10457 0 9 0.895431 9 2V7C9 8.10457 8.10457 9 7 9H2C0.89543 9 0 8.10457 0 7V2Z" fill="white"/>
<path d="M0 14C0 12.8954 0.895431 12 2 12H7C8.10457 12 9 12.8954 9 14V19C9 20.1046 8.10457 21 7 21H2C0.89543 21 0 20.1046 0 19V14Z" fill="white"/>
<path d="M12 2C12 0.89543 12.8954 0 14 0H19C20.1046 0 21 0.895431 21 2V7C21 8.10457 20.1046 9 19 9H14C12.8954 9 12 8.10457 12 7V2Z" fill="white"/>
<path d="M12 14C12 12.8954 12.8954 12 14 12H19C20.1046 12 21 12.8954 21 14V19C21 20.1046 20.1046 21 19 21H14C12.8954 21 12 20.1046 12 19V14Z" fill="white"/>
</svg>
